# xmcd CD database file
#
# Track frame offsets:
#	150
#	57873
#	81126
#	146975
#	201915
#	309762
#
# Disc length: 4477 seconds
#
# Revision: 0
# Processed by: cddbd v1.5.2PL0 Copyright (c) Steve Scherf et al.
# Submitted via: CDex 1.70beta3
#
DISCID=4e117b06
DTITLE=Frank Wright Quartet - Blues for Albert
DYEAR=1974
DGENRE=Jazz
TTITLE0=Part 1
TTITLE1=Part 2
TTITLE2=Part 3
TTITLE3=Part 4
TTITLE4=Part 5
TTITLE5=Part 6
EXTD=YEAR: 1974
EXTT0=
EXTT1=
EXTT2=
EXTT3=
EXTT4=
EXTT5=
PLAYORDER=
